<mxfile host="app.diagrams.net" modified="2023-05-07T08:20:48.600Z" agent="Mozilla/5.0 (Windows NT 10.0; Win64; x64) AppleWebKit/537.36 (KHTML, like Gecko) Chrome/112.0.0.0 Safari/537.36" version="21.2.1" etag="KX39zNIw6R08NfwNKTJ2" type="github">
  <diagram name="Страница 1" id="simLGhMtjHIMqj9L9P9V">
    <mxGraphModel>
      <root>
        <mxCell id="0" />
        <mxCell id="1" parent="0" />
      </root>
    </mxGraphModel>
  </diagram>
</mxfile>
